# xmcd
#
# Track frame offsets:
# 150
# 19530
# 42512
# 56345
# 69377
# 88230
# 107847
# 137220
# 157052
# 166057
# 185545
#
# Disc length: 2751 seconds
#
#
# Revision: 0
# Processed by: cddbd v1.5.2PL0 Copyright (c) Steve Scherf et al.
# Submitted via: FreeRIP 2.951 
#
DISCID=920abd0b
DTITLE=五月天 - 知足
DYEAR=1900
DGENRE=Pop
TTITLE0=知足
TTITLE1=牙關
TTITLE2=亂世浮生
TTITLE3=戀愛ing
TTITLE4=XXX
TTITLE5=孫悟空
TTITLE6=溫柔[還你自由版]
TTITLE7=倔強
TTITLE8=金多蝦
TTITLE9=麥來亂
TTITLE10=志明與春嬌
EXTD=
EXTT0=
EXTT1=
EXTT2=
EXTT3=
EXTT4=
EXTT5=
EXTT6=
EXTT7=
EXTT8=
EXTT9=
EXTT10=
PLAYORDER=
